<svg width="90" height="90" viewBox="0 0 90 90" fill="none" xmlns="http://www.w3.org/2000/svg">
<path d="M45 10.916V58.9153" stroke="white" stroke-opacity="0.701961" stroke-width="7.99994" stroke-linecap="round" stroke-linejoin="round"/>
<path d="M29.001 42.916L45.001 58.9158L61.001 42.916" stroke="white" stroke-opacity="0.701961" stroke-width="7.99994" stroke-linecap="round" stroke-linejoin="round"/>
<path d="M29.001 18.917H13.001C10.8792 18.917 8.84441 19.7598 7.34412 21.2601C5.84383 22.7604 5.00098 24.7952 5.00098 26.9169V66.9163C5.00098 69.038 5.84383 71.0728 7.34412 72.5731C8.84441 74.0733 10.8792 74.9162 13.001 74.9162H77.001C79.1227 74.9162 81.1575 74.0733 82.6578 72.5731C84.1581 71.0728 85.001 69.038 85.001 66.9163V26.9169C85.001 24.7952 84.1581 22.7604 82.6578 21.2601C81.1575 19.7598 79.1227 18.917 77.001 18.917H61.001" stroke="white" stroke-opacity="0.701961" stroke-width="7.99994" stroke-linecap="round" stroke-linejoin="round"/>
</svg>
