<?xml version="1.0" encoding="UTF-8"?>
<svg width="100px" height="100px" viewBox="0 0 100 100" version="1.1" xmlns="http://www.w3.org/2000/svg" xmlns:xlink="http://www.w3.org/1999/xlink">
    <!-- Generator: Sketch 63.1 (92452) - https://sketch.com -->
    <title>daedalus_wallet_unlimited</title>
    <desc>Created with Sketch.</desc>
    <g id="daedalus_wallet_unlimited" stroke="none" stroke-width="1" fill="none" fill-rule="evenodd">
        <g id="Group" transform="translate(11.000000, 3.259822)" fill="#AFAFAF" stroke="#AFAFAF">
            <path d="M76.3412862,39.276378 L76.3412862,47.7350951 L68.6715296,47.7350951 C66.3394704,47.7350951 64.4421711,45.8377957 64.4421711,43.5057365 C64.4421711,41.1736773 66.3394704,39.276378 68.6715296,39.276378 L76.3412862,39.276378 Z M76.3419348,36.6886082 L68.6715296,36.6886082 C64.9125329,36.6886082 61.8546612,39.7467398 61.8546612,43.5054766 C61.8546612,47.2644734 64.9125329,50.3228648 68.6715296,50.3228648 L76.3419348,50.3228648 L76.3419348,61.8763549 C76.3839046,66.1228648 72.9593586,69.6253714 68.7081711,69.6789043 L68.7047928,69.6789043 L62.0004474,69.6789043 C61.3827401,57.7836872 51.5108586,48.2956312 39.464398,48.2956312 C27.4179375,48.2956312 17.5463158,57.7836872 16.9286086,69.6789043 L10.3900592,69.6789043 C6.092875,69.6737069 2.59296711,66.173799 2.58750987,61.8773944 L2.58750987,18.1789602 L68.7019342,18.1789602 C72.932852,18.234572 76.2854145,21.5876543 76.3419348,25.8118155 L76.3419348,36.6886082 Z M59.6385033,72.266674 C58.91425,82.7671773 50.1460296,91.0910227 39.464398,91.0910227 C28.7830263,91.0910227 20.0145461,82.7671773 19.2905526,72.266674 C19.2585888,71.8022891 19.2362401,71.3350457 19.2362401,70.8628648 C19.2362401,70.4652661 19.2510526,70.0710457 19.2736612,69.6789043 C19.8892895,59.0741937 28.7084441,50.634447 39.464398,50.634447 C50.2206118,50.634447 59.0400263,59.0741937 59.6553947,69.6789043 C59.6780033,70.0710457 59.6928158,70.4652661 59.6928158,70.8628648 C59.6928158,71.3350457 59.670727,71.8022891 59.6385033,72.266674 L59.6385033,72.266674 Z M2.58750987,8.10853914 L34.8540724,8.10853914 L17.1120757,15.5914503 L2.58750987,15.5914503 L2.58750987,8.10853914 Z M53.743648,2.97405888 L59.1278618,15.5911905 L23.7743224,15.5911905 L26.9813586,14.2385753 L53.743648,2.97405888 Z M65.1362796,8.10853914 C67.3820625,8.13868388 69.1650197,9.92138125 69.1949046,12.167424 L69.1949046,15.5911905 L61.9287237,15.5911905 L58.7900329,8.10853914 L65.1362796,8.10853914 Z M72.1233618,16.2187727 L71.7826743,16.093776 L71.7826743,12.1741806 C71.7779967,8.51029572 68.793148,5.52544704 65.1287434,5.52076941 L57.6879309,5.52076941 L55.5928717,0.76881546 C55.3096151,0.130578618 54.553398,-0.170608882 53.9078849,0.0986148019 L41.0293257,5.52076941 L1.293625,5.52076941 L1.29310526,5.52076941 C0.952417763,5.52076941 0.619266447,5.65901941 0.378628289,5.89965757 C0.134611842,6.14393388 -4.97379915e-14,6.46902928 -4.97379915e-14,6.81491414 L-4.97379915e-14,61.8763549 C0.00597697368,67.5989174 4.66723684,72.2604372 10.3905789,72.266674 L16.9426414,72.266674 C17.6700132,84.0584635 27.4925197,93.4298385 39.464398,93.4298385 C51.4365362,93.4298385 61.2590428,84.0584635 61.9866743,72.266674 L68.7016743,72.266674 C74.3753816,72.2175589 78.9651776,67.5578582 78.9290109,61.8794734 L78.9290109,25.8219503 C78.8674671,21.550753 76.1328717,17.6919668 72.1233618,16.2187727 L72.1233618,16.2187727 Z" id="Fill-3" stroke-width="0.5"></path>
            <path d="M37.3202998,68.1881119 C37.6839534,68.5564266 37.6776664,69.1473477 37.3062565,69.5079712 C36.9348466,69.8685944 36.3389595,69.8623592 35.9753059,69.4940449 C34.0565271,67.5506731 32.0932329,66.606845 30.0588235,66.606845 C27.1999379,66.606845 24.8823529,68.9051166 24.8823529,71.7401783 C24.8823529,74.5752399 27.1999379,76.8735116 30.0588235,76.8735116 C32.8934979,76.8735116 35.612904,75.0283704 38.221168,71.2161564 C41.1472089,66.9394817 44.3885868,64.7401783 47.9411765,64.7401783 C51.8396569,64.7401783 55,67.8741851 55,71.7401783 C55,75.6061714 51.8396569,78.7401783 47.9411765,78.7401783 C45.3605031,78.7401783 42.9313576,77.5725167 40.6803407,75.2928934 C40.3166673,74.9245982 40.3229228,74.3336764 40.6943129,73.9730336 C41.0657031,73.6123904 41.6615906,73.6185938 42.025264,73.986889 C43.9438635,75.929871 45.9069675,76.8735116 47.9411765,76.8735116 C50.8000621,76.8735116 53.1176471,74.5752399 53.1176471,71.7401783 C53.1176471,68.9051166 50.8000621,66.606845 47.9411765,66.606845 C45.1065021,66.606845 42.387096,68.451986 39.778832,72.2642002 C36.8527911,76.5408749 33.6114132,78.7401783 30.0588235,78.7401783 C26.1603431,78.7401783 23,75.6061714 23,71.7401783 C23,67.8741851 26.1603431,64.7401783 30.0588235,64.7401783 C32.6397431,64.7401783 35.0691021,65.9080613 37.3202998,68.1881119 Z" id="Path" stroke-width="0.8"></path>
        </g>
    </g>
</svg>