<svg width="90" height="90" viewBox="0 0 90 90" fill="none" xmlns="http://www.w3.org/2000/svg">
<path d="M69.2857 27.5211C69.2857 14.1093 58.4118 3.23535 45 3.23535C33.6434 3.23535 24.1355 11.0432 21.4793 21.5741C10.8118 22.7095 2.5 31.7316 2.5 42.6996C2.5 53.8832 11.1457 63.0298 22.1138 63.8677L64.6563 63.9284C63.8882 74.1102 55.3761 82.1639 45 82.1639C38.0421 82.1639 31.9525 78.515 28.4402 73.0568H34.375C35.2129 73.0568 35.8929 72.3768 35.8929 71.5389C35.8929 70.7011 35.2129 70.0211 34.375 70.0211H23.75V80.6461C23.75 81.4839 24.43 82.1639 25.2679 82.1639C26.1057 82.1639 26.7857 81.4839 26.7857 80.6461V75.9832C30.9325 81.5537 37.52 85.1996 45 85.1996C57.067 85.1996 66.9179 75.8041 67.692 63.9314L69.6014 63.9345C79.513 63.7645 87.5 55.6895 87.5 45.7354C87.5 35.675 79.3461 27.5211 69.2857 27.5211ZM68.6088 60.9139H25.3437C26.1239 50.7412 34.63 42.6996 45 42.6996C51.9609 42.6996 58.0566 46.3455 61.5659 51.8068H55.625C54.7871 51.8068 54.1071 52.4868 54.1071 53.3246C54.1071 54.1625 54.7871 54.8425 55.625 54.8425H66.25V44.2175C66.25 43.3796 65.57 42.6996 64.7321 42.6996C63.8943 42.6996 63.2143 43.3796 63.2143 44.2175V48.8652C59.0675 43.3007 52.477 39.6639 45 39.6639C32.9755 39.6639 23.152 48.9927 22.3141 60.8077C15.335 60.2704 9.02679 55.9293 6.68625 49.275C2.46357 37.2718 10.4111 25.8059 21.8011 24.5946L23.9048 24.37L24.263 22.9523C26.4123 14.4341 33.3277 7.65839 42.0311 6.47446C55.0634 4.69857 66.25 14.8287 66.25 27.5211V30.5568H69.2857C78.1561 30.5568 85.2718 38.2037 84.3914 47.2502C83.6204 55.137 76.532 60.9139 68.6088 60.9139Z" fill="#111918" stroke="white" stroke-opacity="0.701961" stroke-width="3.03571"/>
</svg>
