<svg width="128" height="128" viewBox="0 0 128 128" fill="none" xmlns="http://www.w3.org/2000/svg">
<path d="M86.288 18.7546L72.9851 32.0573L69.6942 28.7663C68.826 27.8982 67.4184 27.8984 66.5505 28.7663L26.2173 69.0993C17.3065 78.0104 17.3065 92.5092 26.2173 101.42C35.1284 110.331 49.6272 110.331 58.5383 101.42L98.8715 61.0871C99.7394 60.219 99.7396 58.8114 98.8715 57.9432L95.5803 54.6523L108.883 41.3496C109.751 40.4815 109.751 39.0739 108.883 38.2058L89.4318 18.7544C88.5635 17.8865 87.1561 17.8865 86.288 18.7546ZM94.1556 59.5151L55.3944 98.2764C48.2167 105.454 36.5385 105.454 29.3612 98.2764C22.1837 91.0991 22.1835 79.4207 29.3612 72.2432L68.1225 33.4818L94.1556 59.5151ZM104.167 39.7778L92.4362 51.5088L76.1288 35.2012L87.8596 23.4703L104.167 39.7778Z" fill="white" fill-opacity="0.701961" stroke="white" stroke-opacity="0.701961" stroke-width="0.222294"/>
<path d="M87.8773 30.5176L83.1738 35.2211L86.3177 38.3647L91.021 33.6612L87.8773 30.5176Z" fill="white" fill-opacity="0.701961" stroke="white" stroke-opacity="0.701961" stroke-width="0.222294"/>
<path d="M93.9799 36.6191L89.2764 41.3227L92.4202 44.4665L97.1235 39.763L93.9799 36.6191Z" fill="white" fill-opacity="0.701961" stroke="white" stroke-opacity="0.701961" stroke-width="0.222294"/>
<path d="M66.5924 42.4988L45.0578 64.0331C39.9444 69.1466 39.9442 77.4672 45.0578 82.5811C50.1715 87.6945 58.4923 87.6945 63.6058 82.5811L85.1401 61.0467C86.0082 60.1786 86.0085 58.7709 85.1401 57.9028L69.7361 42.4988C68.8679 41.6306 67.4603 41.6306 66.5924 42.4988ZM80.4246 59.4747L60.4621 79.4372C57.0818 82.8175 51.582 82.8175 48.2017 79.4372C44.8214 76.0569 44.8214 70.5571 48.2017 67.1768L68.1642 47.2142L80.4246 59.4747Z" fill="white" fill-opacity="0.701961" stroke="white" stroke-opacity="0.701961" stroke-width="0.222294"/>
</svg>
