<svg width="90" height="90" viewBox="0 0 90 90" fill="none" xmlns="http://www.w3.org/2000/svg">
<g clip-path="url(#clip0_429_721)">
<path d="M90 0H0V90H90V0Z" stroke="white" stroke-opacity="0.701961" stroke-width="0.0009"/>
<path d="M82.4993 9.56395V26.2515C82.4993 27.246 82.1042 28.1998 81.4009 28.9031C80.6977 29.6064 79.7438 30.0015 78.7493 30.0015H61.8743C61.3307 30.0076 60.7923 29.8955 60.2963 29.6729C59.8004 29.4503 59.3587 29.1226 59.002 28.7124C58.6453 28.3021 58.3821 27.8193 58.2305 27.2972C58.0789 26.7752 58.0427 26.2264 58.1243 25.689C58.3006 24.7793 58.7921 23.9609 59.5123 23.3779C60.2325 22.7949 61.1353 22.4845 62.0618 22.5015H70.1243C65.7564 17.6373 60.0699 14.1463 53.7557 12.4528C47.4414 10.7592 40.7712 10.936 34.5555 12.9616C28.3397 14.9871 22.8461 18.7743 18.742 23.863C14.6379 28.9517 12.1 35.1228 11.4368 41.6265C11.3435 42.5547 10.9076 43.4148 10.2142 44.0389C9.52077 44.6629 8.61965 45.0061 7.68677 45.0015C7.16111 45.0041 6.64076 44.8962 6.15949 44.6847C5.67823 44.4733 5.2468 44.163 4.89319 43.774C4.53959 43.3851 4.27171 42.9261 4.10694 42.4269C3.94218 41.9277 3.8842 41.3995 3.93677 40.8765C4.72434 33.0036 7.75952 25.5233 12.6804 19.3275C17.6013 13.1317 24.2003 8.48189 31.6905 5.93245C39.1807 3.38301 47.2461 3.04153 54.925 4.94872C62.6039 6.85591 69.5723 10.9313 74.9993 16.689V9.37645C74.9931 8.83288 75.1052 8.29446 75.3278 7.79851C75.5504 7.30255 75.8781 6.86093 76.2884 6.50422C76.6986 6.14751 77.1814 5.88426 77.7035 5.73269C78.2255 5.58113 78.7743 5.54488 79.3118 5.62645C80.2214 5.8028 81.0398 6.29431 81.6228 7.01452C82.2059 7.73473 82.5162 8.63749 82.4993 9.56395Z" fill="white" fill-opacity="0.701961" stroke="white" stroke-opacity="0.701961" stroke-width="0.0009"/>
<path d="M7.49968 80.4385V63.751C7.49968 62.7565 7.89477 61.8026 8.59803 61.0994C9.30129 60.3961 10.2551 60.001 11.2497 60.001H28.1247C28.6683 59.9949 29.2067 60.107 29.7026 60.3296C30.1986 60.5521 30.6402 60.8799 30.9969 61.2901C31.3536 61.7003 31.6169 62.1832 31.7684 62.7052C31.92 63.2273 31.9563 63.7761 31.8747 64.3135C31.6983 65.2232 31.2068 66.0416 30.4866 66.6246C29.7664 67.2076 28.8636 67.518 27.9372 67.501H19.8747C24.2425 72.3652 29.929 75.8561 36.2433 77.5497C42.5576 79.2432 49.2278 79.0665 55.4435 77.0409C61.6592 75.0153 67.1529 71.2281 71.2569 66.1395C75.361 61.0508 77.8989 54.8797 78.5622 48.376C78.6555 47.4478 79.0914 46.5877 79.7848 45.9636C80.4782 45.3396 81.3793 44.9963 82.3122 45.001C82.8378 44.9984 83.3582 45.1063 83.8395 45.3178C84.3207 45.5292 84.7522 45.8395 85.1058 46.2285C85.4594 46.6174 85.7272 47.0764 85.892 47.5756C86.0568 48.0747 86.1148 48.603 86.0622 49.126C85.2746 56.9989 82.2394 64.4792 77.3185 70.675C72.3976 76.8708 65.7987 81.5206 58.3085 84.07C50.8183 86.6195 42.7529 86.9609 35.074 85.0538C27.3951 83.1466 20.4267 79.0712 14.9997 73.3135V80.626C15.0058 81.1696 14.8937 81.708 14.6711 82.204C14.4486 82.6999 14.1208 83.1416 13.7106 83.4983C13.3004 83.855 12.8175 84.1182 12.2955 84.2698C11.7734 84.4213 11.2246 84.4576 10.6872 84.376C9.7775 84.1997 8.95915 83.7082 8.37612 82.988C7.7931 82.2677 7.48275 81.365 7.49968 80.4385Z" fill="white" fill-opacity="0.701961" stroke="white" stroke-opacity="0.701961" stroke-width="0.0009"/>
</g>
<defs>
<clipPath id="clip0_429_721">
<rect width="90" height="90" fill="white"/>
</clipPath>
</defs>
</svg>
